<mxfile host="app.diagrams.net" modified="2024-06-23T12:06:59.524Z" agent="Mozilla/5.0 (Windows NT 10.0; Win64; x64) AppleWebKit/537.36 (KHTML, like Gecko) Chrome/126.0.0.0 Safari/537.36" etag="3lfPzmcxI-IP8B1uaQce" version="24.6.2" type="device">
  <diagram name="Seite-1" id="y4IM1ZsuZHMHRTIgqcva">
    <mxGraphModel dx="1310" dy="908" grid="1" gridSize="10" guides="1" tooltips="1" connect="1" arrows="1" fold="1" page="1" pageScale="1" pageWidth="827" pageHeight="1169" math="0" shadow="0">
      <root>
        <mxCell id="0" />
        <mxCell id="1" parent="0" />
        <mxCell id="q4JSehxmCGFXWw7xhAUl-3" value="Quality Goals" style="shape=rect;html=1;rounded=1;whiteSpace=wrap;align=center;fillColor=#C9D6E8;strokeColor=#6c8ebf;fontStyle=1;fontColor=#000000;" vertex="1" parent="1">
          <mxGeometry x="450" y="470" width="120" height="40" as="geometry" />
        </mxCell>
        <mxCell id="q4JSehxmCGFXWw7xhAUl-4" value="Reliability" style="shape=rect;html=1;rounded=1;whiteSpace=wrap;align=center;fillColor=#ABABAB;strokeColor=#666666;fontStyle=1;fontColor=#000000;" vertex="1" parent="1">
          <mxGeometry x="610" y="340" width="120" height="40" as="geometry" />
        </mxCell>
        <mxCell id="q4JSehxmCGFXWw7xhAUl-5" value="Maintainability" style="shape=rect;html=1;rounded=1;whiteSpace=wrap;align=center;fillColor=#ababab;strokeColor=#666666;fontStyle=1;fontColor=#000000;" vertex="1" parent="1">
          <mxGeometry x="610" y="510" width="120" height="40" as="geometry" />
        </mxCell>
        <mxCell id="q4JSehxmCGFXWw7xhAUl-6" value="Performance" style="shape=rect;html=1;rounded=1;whiteSpace=wrap;align=center;fillColor=#ababab;strokeColor=#666666;fontStyle=1;fontColor=#000000;" vertex="1" parent="1">
          <mxGeometry x="610" y="670" width="120" height="40" as="geometry" />
        </mxCell>
        <mxCell id="q4JSehxmCGFXWw7xhAUl-7" value="Availability" style="shape=rect;html=1;rounded=1;whiteSpace=wrap;align=center;fillColor=#ABABAB;strokeColor=#666666;fontStyle=1;fontColor=#000000;" vertex="1" parent="1">
          <mxGeometry x="770" y="370" width="120" height="40" as="geometry" />
        </mxCell>
        <mxCell id="q4JSehxmCGFXWw7xhAUl-8" value="Adaptability" style="shape=rect;html=1;rounded=1;whiteSpace=wrap;align=center;fillColor=#ABABAB;strokeColor=#666666;fontStyle=1;fontColor=#000000;" vertex="1" parent="1">
          <mxGeometry x="770" y="450" width="120" height="40" as="geometry" />
        </mxCell>
        <mxCell id="q4JSehxmCGFXWw7xhAUl-9" value="Testability" style="shape=rect;html=1;rounded=1;whiteSpace=wrap;align=center;fillColor=#ABABAB;strokeColor=#666666;fontStyle=1;fontColor=#000000;" vertex="1" parent="1">
          <mxGeometry x="770" y="565" width="120" height="40" as="geometry" />
        </mxCell>
        <mxCell id="q4JSehxmCGFXWw7xhAUl-10" value="Efficiency" style="shape=rect;html=1;rounded=1;whiteSpace=wrap;align=center;fillColor=#ababab;strokeColor=#666666;fontStyle=1;fontColor=#000000;" vertex="1" parent="1">
          <mxGeometry x="770" y="650" width="120" height="40" as="geometry" />
        </mxCell>
        <mxCell id="q4JSehxmCGFXWw7xhAUl-11" value="" style="endArrow=classic;html=1;rounded=0;curved=1;entryX=0;entryY=0.5;entryDx=0;entryDy=0;exitX=0.5;exitY=0;exitDx=0;exitDy=0;" edge="1" parent="1" source="q4JSehxmCGFXWw7xhAUl-3" target="q4JSehxmCGFXWw7xhAUl-4">
          <mxGeometry width="50" height="50" relative="1" as="geometry">
            <mxPoint x="540" y="470" as="sourcePoint" />
            <mxPoint x="590" y="420" as="targetPoint" />
            <Array as="points">
              <mxPoint x="510" y="360" />
            </Array>
          </mxGeometry>
        </mxCell>
        <mxCell id="q4JSehxmCGFXWw7xhAUl-12" value="" style="endArrow=classic;html=1;rounded=0;curved=1;entryX=0;entryY=0.5;entryDx=0;entryDy=0;exitX=0.5;exitY=1;exitDx=0;exitDy=0;" edge="1" parent="1" source="q4JSehxmCGFXWw7xhAUl-3" target="q4JSehxmCGFXWw7xhAUl-6">
          <mxGeometry width="50" height="50" relative="1" as="geometry">
            <mxPoint x="570" y="600" as="sourcePoint" />
            <mxPoint x="640" y="520" as="targetPoint" />
            <Array as="points">
              <mxPoint x="500" y="690" />
            </Array>
          </mxGeometry>
        </mxCell>
        <mxCell id="q4JSehxmCGFXWw7xhAUl-13" value="" style="endArrow=classic;html=1;rounded=0;exitX=0.75;exitY=1;exitDx=0;exitDy=0;entryX=0;entryY=0.5;entryDx=0;entryDy=0;curved=1;" edge="1" parent="1" source="q4JSehxmCGFXWw7xhAUl-3" target="q4JSehxmCGFXWw7xhAUl-5">
          <mxGeometry width="50" height="50" relative="1" as="geometry">
            <mxPoint x="460" y="450" as="sourcePoint" />
            <mxPoint x="510" y="400" as="targetPoint" />
            <Array as="points">
              <mxPoint x="570" y="530" />
            </Array>
          </mxGeometry>
        </mxCell>
        <mxCell id="q4JSehxmCGFXWw7xhAUl-14" value="End-to-End integration tests" style="shape=rect;html=1;rounded=1;whiteSpace=wrap;align=center;fontStyle=1;" vertex="1" parent="1">
          <mxGeometry x="770" y="310" width="180" height="40" as="geometry" />
        </mxCell>
        <mxCell id="q4JSehxmCGFXWw7xhAUl-15" value="Health endpoints" style="shape=rect;html=1;rounded=1;whiteSpace=wrap;align=center;fontStyle=1;" vertex="1" parent="1">
          <mxGeometry x="920" y="370" width="120" height="40" as="geometry" />
        </mxCell>
        <mxCell id="q4JSehxmCGFXWw7xhAUl-16" value="Checkstyle rules" style="shape=rect;html=1;rounded=1;whiteSpace=wrap;align=center;fontStyle=1;" vertex="1" parent="1">
          <mxGeometry x="920" y="430" width="120" height="40" as="geometry" />
        </mxCell>
        <mxCell id="q4JSehxmCGFXWw7xhAUl-17" value="Separation of concern trough architecture patterns" style="shape=rect;html=1;rounded=1;whiteSpace=wrap;align=center;fontStyle=1;" vertex="1" parent="1">
          <mxGeometry x="920" y="480" width="190" height="40" as="geometry" />
        </mxCell>
        <mxCell id="q4JSehxmCGFXWw7xhAUl-18" value="Test coverage" style="shape=rect;html=1;rounded=1;whiteSpace=wrap;align=center;fontStyle=1;" vertex="1" parent="1">
          <mxGeometry x="920" y="540" width="100" height="40" as="geometry" />
        </mxCell>
        <mxCell id="q4JSehxmCGFXWw7xhAUl-19" value="Independent from external services" style="shape=rect;html=1;rounded=1;whiteSpace=wrap;align=center;fontStyle=1;" vertex="1" parent="1">
          <mxGeometry x="920" y="585" width="220" height="40" as="geometry" />
        </mxCell>
        <mxCell id="q4JSehxmCGFXWw7xhAUl-20" value="Time measurement on performance tests" style="shape=rect;html=1;rounded=1;whiteSpace=wrap;align=center;fontStyle=1;" vertex="1" parent="1">
          <mxGeometry x="920" y="650" width="250" height="40" as="geometry" />
        </mxCell>
        <mxCell id="q4JSehxmCGFXWw7xhAUl-21" value="performance tests" style="shape=rect;html=1;rounded=1;whiteSpace=wrap;align=center;fontStyle=1;" vertex="1" parent="1">
          <mxGeometry x="770" y="710" width="125" height="40" as="geometry" />
        </mxCell>
        <mxCell id="q4JSehxmCGFXWw7xhAUl-22" value="" style="endArrow=classic;html=1;rounded=0;exitX=0.662;exitY=-0.011;exitDx=0;exitDy=0;entryX=0;entryY=0.5;entryDx=0;entryDy=0;curved=1;exitPerimeter=0;" edge="1" parent="1" source="q4JSehxmCGFXWw7xhAUl-5" target="q4JSehxmCGFXWw7xhAUl-8">
          <mxGeometry width="50" height="50" relative="1" as="geometry">
            <mxPoint x="550" y="520" as="sourcePoint" />
            <mxPoint x="620" y="540" as="targetPoint" />
            <Array as="points">
              <mxPoint x="710" y="470" />
            </Array>
          </mxGeometry>
        </mxCell>
        <mxCell id="q4JSehxmCGFXWw7xhAUl-23" value="" style="endArrow=classic;html=1;rounded=0;exitX=0.652;exitY=1.046;exitDx=0;exitDy=0;entryX=0;entryY=0.5;entryDx=0;entryDy=0;curved=1;exitPerimeter=0;" edge="1" parent="1" source="q4JSehxmCGFXWw7xhAUl-5" target="q4JSehxmCGFXWw7xhAUl-9">
          <mxGeometry width="50" height="50" relative="1" as="geometry">
            <mxPoint x="699" y="520" as="sourcePoint" />
            <mxPoint x="780" y="480" as="targetPoint" />
            <Array as="points">
              <mxPoint x="710" y="585" />
            </Array>
          </mxGeometry>
        </mxCell>
        <mxCell id="q4JSehxmCGFXWw7xhAUl-24" value="" style="endArrow=classic;html=1;rounded=0;exitX=1;exitY=0.25;exitDx=0;exitDy=0;entryX=0;entryY=0.5;entryDx=0;entryDy=0;curved=1;" edge="1" parent="1" source="q4JSehxmCGFXWw7xhAUl-4" target="q4JSehxmCGFXWw7xhAUl-14">
          <mxGeometry width="50" height="50" relative="1" as="geometry">
            <mxPoint x="699" y="520" as="sourcePoint" />
            <mxPoint x="780" y="480" as="targetPoint" />
            <Array as="points">
              <mxPoint x="740" y="330" />
            </Array>
          </mxGeometry>
        </mxCell>
        <mxCell id="q4JSehxmCGFXWw7xhAUl-25" value="" style="endArrow=classic;html=1;rounded=0;exitX=1;exitY=0.75;exitDx=0;exitDy=0;entryX=0;entryY=0.5;entryDx=0;entryDy=0;curved=1;" edge="1" parent="1" source="q4JSehxmCGFXWw7xhAUl-4" target="q4JSehxmCGFXWw7xhAUl-7">
          <mxGeometry width="50" height="50" relative="1" as="geometry">
            <mxPoint x="740" y="360" as="sourcePoint" />
            <mxPoint x="780" y="340" as="targetPoint" />
            <Array as="points">
              <mxPoint x="740" y="380" />
            </Array>
          </mxGeometry>
        </mxCell>
        <mxCell id="q4JSehxmCGFXWw7xhAUl-26" value="" style="endArrow=classic;html=1;rounded=0;exitX=1;exitY=0.75;exitDx=0;exitDy=0;entryX=0;entryY=0.5;entryDx=0;entryDy=0;curved=1;" edge="1" parent="1" source="q4JSehxmCGFXWw7xhAUl-6" target="q4JSehxmCGFXWw7xhAUl-21">
          <mxGeometry width="50" height="50" relative="1" as="geometry">
            <mxPoint x="680" y="605" as="sourcePoint" />
            <mxPoint x="720" y="625" as="targetPoint" />
            <Array as="points">
              <mxPoint x="740" y="720" />
            </Array>
          </mxGeometry>
        </mxCell>
        <mxCell id="q4JSehxmCGFXWw7xhAUl-27" value="" style="endArrow=classic;html=1;rounded=0;entryX=0;entryY=0.5;entryDx=0;entryDy=0;curved=1;exitX=1;exitY=0.25;exitDx=0;exitDy=0;" edge="1" parent="1" source="q4JSehxmCGFXWw7xhAUl-6" target="q4JSehxmCGFXWw7xhAUl-10">
          <mxGeometry width="50" height="50" relative="1" as="geometry">
            <mxPoint x="740" y="690" as="sourcePoint" />
            <mxPoint x="780" y="740" as="targetPoint" />
            <Array as="points">
              <mxPoint x="740" y="670" />
            </Array>
          </mxGeometry>
        </mxCell>
        <mxCell id="q4JSehxmCGFXWw7xhAUl-28" value="" style="endArrow=classic;html=1;rounded=0;entryX=0;entryY=0.5;entryDx=0;entryDy=0;curved=1;exitX=1;exitY=0.25;exitDx=0;exitDy=0;" edge="1" parent="1" target="q4JSehxmCGFXWw7xhAUl-20">
          <mxGeometry width="50" height="50" relative="1" as="geometry">
            <mxPoint x="890" y="670" as="sourcePoint" />
            <mxPoint x="930" y="660" as="targetPoint" />
            <Array as="points" />
          </mxGeometry>
        </mxCell>
        <mxCell id="q4JSehxmCGFXWw7xhAUl-29" value="" style="endArrow=classic;html=1;rounded=0;entryX=0;entryY=0.5;entryDx=0;entryDy=0;curved=1;exitX=1;exitY=0.25;exitDx=0;exitDy=0;" edge="1" parent="1">
          <mxGeometry width="50" height="50" relative="1" as="geometry">
            <mxPoint x="890" y="389.71" as="sourcePoint" />
            <mxPoint x="920" y="389.71" as="targetPoint" />
            <Array as="points" />
          </mxGeometry>
        </mxCell>
        <mxCell id="q4JSehxmCGFXWw7xhAUl-30" value="" style="endArrow=classic;html=1;rounded=0;entryX=0;entryY=0.5;entryDx=0;entryDy=0;curved=1;exitX=1;exitY=0.25;exitDx=0;exitDy=0;" edge="1" parent="1" target="q4JSehxmCGFXWw7xhAUl-16">
          <mxGeometry width="50" height="50" relative="1" as="geometry">
            <mxPoint x="890" y="460" as="sourcePoint" />
            <mxPoint x="920" y="460" as="targetPoint" />
            <Array as="points">
              <mxPoint x="900" y="450" />
            </Array>
          </mxGeometry>
        </mxCell>
        <mxCell id="q4JSehxmCGFXWw7xhAUl-31" value="" style="endArrow=classic;html=1;rounded=0;entryX=0;entryY=0.5;entryDx=0;entryDy=0;curved=1;exitX=1;exitY=0.25;exitDx=0;exitDy=0;" edge="1" parent="1" target="q4JSehxmCGFXWw7xhAUl-17">
          <mxGeometry width="50" height="50" relative="1" as="geometry">
            <mxPoint x="890" y="480" as="sourcePoint" />
            <mxPoint x="920" y="470" as="targetPoint" />
            <Array as="points">
              <mxPoint x="900" y="500" />
            </Array>
          </mxGeometry>
        </mxCell>
        <mxCell id="q4JSehxmCGFXWw7xhAUl-32" value="" style="endArrow=classic;html=1;rounded=0;entryX=0;entryY=0.5;entryDx=0;entryDy=0;curved=1;exitX=1;exitY=0.75;exitDx=0;exitDy=0;" edge="1" parent="1" source="q4JSehxmCGFXWw7xhAUl-9">
          <mxGeometry width="50" height="50" relative="1" as="geometry">
            <mxPoint x="890" y="585" as="sourcePoint" />
            <mxPoint x="920" y="605" as="targetPoint" />
            <Array as="points">
              <mxPoint x="900" y="605" />
            </Array>
          </mxGeometry>
        </mxCell>
        <mxCell id="q4JSehxmCGFXWw7xhAUl-33" value="" style="endArrow=classic;html=1;rounded=0;entryX=0;entryY=0.5;entryDx=0;entryDy=0;curved=1;exitX=1;exitY=0.25;exitDx=0;exitDy=0;" edge="1" parent="1">
          <mxGeometry width="50" height="50" relative="1" as="geometry">
            <mxPoint x="890" y="575" as="sourcePoint" />
            <mxPoint x="920" y="565" as="targetPoint" />
            <Array as="points">
              <mxPoint x="900" y="565" />
            </Array>
          </mxGeometry>
        </mxCell>
      </root>
    </mxGraphModel>
  </diagram>
</mxfile>
